PathFileType	4	(X/Y/Z)	D:\Long Term Storage\D'Arcy Smith\Coord19.trc
DataRate	CameraRate	NumFrames	NumMarkers	Units	OrigDataRate	OrigDataStartFrame	OrigNumFrames
120.00	120.00	      113	4	mm	120.00	1226	      4903
Frame#	Time	M1			M2			M3			M4			
		X1	Y1	Z1	X2	Y2	Z2	X3	Y3	Z3	X4	Y4	Z4	

1226	10.208	648.75153	543.87537	7.03072	953.46344	399.81497	13.19371							
1227	10.217	649.26929	544.82434	8.39055	954.03198	396.67694	17.19256							
1228	10.225	649.65741	545.05811	9.04427	954.35901	392.81436	22.39369							
1229	10.233	650.30048	544.35266	10.28737	954.49329	388.32553	28.14806							
1230	10.242	650.89215	542.64362	11.79061	954.45258	383.19650	34.90663							
1231	10.250	651.85431	540.74860	12.89781	954.43964	377.86276	42.35424							
1232	10.258	652.65912	537.81689	14.34743	954.22754	372.06296	50.65514							
1233	10.267	653.74188	534.52338	15.58263	953.77979	365.80383	59.77593							
1234	10.275	654.98163	530.62207	17.05046	953.75336	359.26953	70.02901							
1235	10.283	656.33691	525.92377	19.20737	953.27484	353.27744	80.28194							
1236	10.292	657.49323	520.92365	20.53011	952.78168	346.66876	91.79331							
1237	10.300	658.91125	515.62360	22.56580	951.98486	340.15958	105.02917							
1238	10.308	660.07709	509.15173	25.61838	951.40485	332.42929	120.85950							
1239	10.317	661.38190	502.36972	28.87778	950.82300	326.28918	134.74213							
1240	10.325	662.39600	494.83823	32.49057	950.27075	320.52902	149.30890							
1241	10.333	663.54126	486.91959	37.50068	949.87579	315.13342	164.37584							
1242	10.342	664.73566	478.01385	43.37064	949.45557	309.98718	180.18498							
1243	10.350	665.78064	468.56372	50.49790	949.12195	305.48840	196.62006							
1244	10.358	666.86694	458.57330	58.82904	948.79999	301.67172	213.61365							
1245	10.367	667.99542	448.07434	68.54274	948.62402	298.43503	231.10081							
1246	10.375	669.04810	437.13712	79.67811	948.55334	295.90735	248.75116							
1247	10.383	670.17242	425.91183	92.21999	948.69989	294.09247	266.64230							
1248	10.392	671.26862	413.98364	106.39482	948.77020	292.78580	284.27612							
1249	10.400	672.27625	402.64517	122.00970	949.60754	292.26114	302.51663							
1250	10.408	673.18561	391.67950	139.44563	949.69391	292.39841	320.67670							
1251	10.417	673.37860	380.50015	158.68002	949.86975	293.25232	340.53546							
1252	10.425	673.85101	370.44617	178.92134	951.20282	294.66327	358.88315							
1253	10.433	674.15472	361.49420	200.24722	952.69672	297.87326	376.23026							
1254	10.442	673.98627	353.53516	222.77588	953.73694	300.75174	393.91925							
1255	10.450	673.60187	346.66818	246.01817	954.91577	305.19006	411.65289							
1256	10.458	672.71869	340.97128	269.96072	956.12927	310.41824	429.71024							
1257	10.467	671.61694	336.90363	294.05350	957.32562	316.57492	444.94653							
1258	10.475	669.88116	334.07462	318.61975	958.69385	323.74542	462.91879							
1259	10.483	667.99872	332.96606	342.79004	960.25433	331.09348	478.32339							
1260	10.492	665.86469	333.48212	366.65366	961.78693	338.87173	493.00940							
1261	10.500	662.84375	335.60425	392.08997	962.77948	347.05978	507.98184							
1262	10.508	659.46222	338.97052	414.16162	964.34961	356.17969	521.17120							
1263	10.517	656.61975	343.74429	434.33429	965.94696	365.79620	532.94080							
1264	10.525	653.08240	349.41479	451.70624	967.35767	375.41153	544.06696							
1265	10.533	649.19714	355.43704	470.77039	968.77185	384.74683	553.39026							
1266	10.542	645.23657	361.96832	486.72711	969.40021	393.82782	562.83582							
1267	10.550	641.57092	368.55017	501.10150	970.45721	403.24420	571.27521							
1268	10.558	637.84979	374.90250	513.74359	971.27338	412.17911	579.07751							
1269	10.567	634.53064	381.21033	524.68445	971.93201	420.70242	586.10712							
1270	10.575	631.47485	387.10666	534.22852	972.46411	428.63309	591.92969							
1271	10.583	628.35455	392.54010	542.02771	972.91638	435.72931	597.55774							
1272	10.592	625.78143	397.51132	548.31116	972.93304	442.47519	602.74890							
1273	10.600	623.30823	401.84970	553.03430	972.94757	448.48001	607.11847							
1274	10.608	621.13428	405.49924	556.27954	972.71674	453.63092	610.54669							
1275	10.617	619.15100	408.21078	558.04871	972.32513	457.73090	613.51874							
1276	10.625	617.40485	409.73273	557.92096	971.98407	460.91916	614.78278							
1277	10.633	615.92798	409.97211	556.47522	971.44049	463.29770	615.79095							
1278	10.642	614.96930	408.92831	553.20093	970.70685	465.02750	616.84503							
1279	10.650	614.66571	406.57410	548.33252	969.94556	465.67499	617.01239							
1280	10.658	614.96851	402.92984	541.97333	968.86627	465.41931	616.63910							
1281	10.667	615.77380	398.55417	533.85059	967.75043	464.04245	615.73889							
1282	10.675	617.09247	393.44638	524.45428	966.57135	462.01932	613.75195							
1283	10.683	618.78461	387.80295	513.66589	965.47882	458.97107	611.85028							
1284	10.692	620.74823	382.00928	501.54865	964.14325	455.28705	608.61310							
1285	10.700	623.04102	376.07047	488.52185	962.92139	450.76151	605.37946							
1286	10.708	625.58521	370.32584	474.48071	961.89679	445.40143	601.10065							
1287	10.717	628.31287	365.05768	459.54419	960.31812	439.81882	595.95575							
1288	10.725	630.44922	359.71295	442.62308	959.09973	433.46283	590.43567							
1289	10.733	633.42480	355.88403	426.85913	957.68689	426.42422	583.86035							
1290	10.742	635.80176	352.39658	410.09021	956.48230	419.02609	576.58075							
1291	10.750	638.31335	349.76489	392.94305	955.05615	411.12103	568.14197							
1292	10.758	640.19086	347.83215	375.09015	953.77350	402.87796	559.52563							
1293	10.767	642.28339	346.83551	356.87582	952.44330	394.32394	549.57758							
1294	10.775	643.78674	346.35364	338.21341	951.02173	385.91397	539.78583							
1295	10.783	646.09174	347.37430	318.67120	949.81158	377.15836	528.10083							
1296	10.792	647.57104	348.91125	298.73022	948.68518	368.58102	515.86511							
1297	10.800	649.55499	351.78284	278.55157	947.61188	360.13382	502.60178							
1298	10.808	651.37390	355.70752	257.97900	946.68799	352.00531	489.08221							
1299	10.817	653.16144	360.95816	237.44354	945.60895	344.41177	474.18497							
1300	10.825	654.66864	367.37524	216.81557	944.83606	336.69547	458.15826							
1301	10.833	656.18359	375.16238	196.36388	943.90906	330.19601	441.58603							
1302	10.842	657.37775	384.09726	176.01212	942.79144	324.10101	424.44101							
1303	10.850	658.73413	395.07092	155.73618	942.13098	318.53110	405.31580							
1304	10.858	659.62030	406.90988	136.09766	941.28076	313.84134	386.65201							
1305	10.867	659.99567	420.03702	117.28877	940.33746	310.04153	367.31039							
1306	10.875	660.24225	434.94980	98.90320	939.16962	307.15747	347.66089							
1307	10.883	660.14777	450.15622	81.63236	938.08325	305.10925	327.95111							
1308	10.892	660.12714	466.24664	65.37160	936.87439	303.89435	307.87775							
1309	10.900	659.82336	482.71155	50.51062	935.49091	303.81604	287.72644							
1310	10.908	659.27948	499.30200	37.22821	934.18201	304.52386	267.96271							
1311	10.917	658.90253	515.40814	26.19999	932.63342	306.25986	247.64005							
1312	10.925	657.90350	530.91034	16.27707	931.13043	308.87527	227.67839							
1313	10.933	657.11407	545.40240	8.53722	929.40643	312.34521	207.84959							
1314	10.942	656.37610	558.32635	2.54460	927.76233	316.88538	188.44405							
1315	10.950	655.72400	569.80688	-1.81580	925.82416	322.17709	169.58179							
1316	10.958	655.18579	579.47809	-4.81331	923.95526	328.46594	151.38058							
1317	10.967	654.83472	587.51117	-6.47839	921.95404	335.31259	134.08333							
1318	10.975	654.70551	593.74292	-7.23037	919.96545	342.62173	117.28498							
1319	10.983	654.82709	598.09570	-6.57598	918.21204	351.98807	98.27792							
1320	10.992	655.22815	601.40216	-5.90111	915.97382	359.73285	83.92503							
1321	11.000	655.68420	603.76093	-5.54355	913.33411	367.77640	70.30634							
1322	11.008	656.29816	604.65137	-4.10870	911.02594	375.66983	57.95658							
1323	11.017	656.78992	604.36896	-2.24848	908.88177	383.64670	46.64170							
1324	11.025	657.67639	603.64862	-0.79060	906.66919	391.17038	36.46102							
1325	11.033	658.67358	602.33862	0.71910	904.59058	398.14578	27.44831							
1326	11.042	659.63757	599.18677	3.02567	902.58075	404.78729	19.60193							
1327	11.050	660.53040	595.37579	5.26652	900.59253	410.57529	13.23631							
1328	11.058	661.65814	591.56274	7.21350	898.77661	415.56543	7.98496							
1329	11.067	662.90479	586.70941	9.46850	897.11108	419.69055	4.08206							
1330	11.075	664.13910	581.04132	12.05930	895.51605	422.89191	1.40696							
1331	11.083	665.34265	575.37494	14.15264	894.15851	424.90253	-0.16078							
1332	11.092	666.69495	569.06439	16.57732	892.95856	424.72562	0.31380							
1333	11.100	667.95599	561.88898	19.60848	891.91107	424.66403	1.22266							
1334	11.108	669.08344	554.79681	22.30113	891.02777	423.57843	3.13273							
1335	11.117	670.13019	547.50104	25.09357	890.28271	421.48422	5.82547							
1336	11.125	671.27631	539.79639	28.36795	889.86060	418.46362	9.73915							
1337	11.133	672.32507	531.97070	31.81062	889.46271	414.48505	14.44211							
1338	11.142	673.26093	523.82233	35.65636	889.24854	409.82327	20.16086							
